HIERARCHY
ROOT SpineBase
{
  OFFSET 0.000000 0.000000 0.000000
  CHANNELS 6 Xposition Yposition Zposition Zrotation Xrotation Yrotation
  JOINT SpineMid
  {
    OFFSET -0.000000 33.746204 0.000000
    CHANNELS 3 Zrotation Xrotation Yrotation
    JOINT SpineShoulder
    {
      OFFSET 0.081199 25.071479 -0.867035
      CHANNELS 3 Zrotation Xrotation Yrotation
      JOINT Neck
      {
        OFFSET 0.055325 8.303030 -0.646600
        CHANNELS 3 Zrotation Xrotation Yrotation
        JOINT Head
        {
          OFFSET -8.032108 12.796703 1.855827
          CHANNELS 3 Zrotation Xrotation Yrotation
          End Site
          {
            OFFSET 0 0 0
          }
        }
      }
      JOINT ShoulderLeft
      {
        OFFSET -8.908178 -3.940422 9.942783
        CHANNELS 3 Zrotation Xrotation Yrotation
        JOINT ElbowLeft
        {
          OFFSET -1.026459 -31.553840 -7.365908
          CHANNELS 3 Zrotation Xrotation Yrotation
          JOINT WristLeft
          {
            OFFSET -3.456940 -23.334087 -4.504452
            CHANNELS 3 Zrotation Xrotation Yrotation
            JOINT HandLeft
            {
              OFFSET 1.898169 -6.958209 3.112414
              CHANNELS 3 Zrotation Xrotation Yrotation
              JOINT HandTipLeft
              {
                OFFSET -0.423219 -7.411041 2.840242
                CHANNELS 3 Zrotation Xrotation Yrotation
                End Site
                {
                  OFFSET 0 0 0
                }
              }
              JOINT ThumbLeft
              {
                OFFSET -2.237604 -1.493058 3.067886
                CHANNELS 3 Zrotation Xrotation Yrotation
                End Site
                {
                  OFFSET 0 0 0
                }
              }
            }
          }
        }
      }
      JOINT ShoulderRight
      {
        OFFSET 10.970072 -3.430670 -11.614353
        CHANNELS 3 Zrotation Xrotation Yrotation
        JOINT ElbowRight
        {
          OFFSET 5.659301 -22.848213 -7.376840
          CHANNELS 3 Zrotation Xrotation Yrotation
          JOINT WristRight
          {
            OFFSET -3.041266 -24.659669 -7.488442
            CHANNELS 3 Zrotation Xrotation Yrotation
            JOINT HandRight
            {
              OFFSET -3.821383 -8.678850 0.514427
              CHANNELS 3 Zrotation Xrotation Yrotation
              JOINT HandTipRight
              {
                OFFSET -3.413458 -8.042708 -2.823092
                CHANNELS 3 Zrotation Xrotation Yrotation
                End Site
                {
                  OFFSET 0 0 0
                }
              }
              JOINT ThumbRight
              {
                OFFSET 2.963118 -2.265764 -5.096333
                CHANNELS 3 Zrotation Xrotation Yrotation
                End Site
                {
                  OFFSET 0 0 0
                }
              }
            }
          }
        }
      }
    }
  }
  JOINT HipLeft
  {
    OFFSET -3.815139 -0.419801 1.009762
    CHANNELS 3 Zrotation Xrotation Yrotation
    JOINT KneeLeft
    {
      OFFSET 2.045465 -39.205965 -0.728791
      CHANNELS 3 Zrotation Xrotation Yrotation
      JOINT AnkleLeft
      {
        OFFSET 15.450505 -38.638625 -4.509185
        CHANNELS 3 Zrotation Xrotation Yrotation
        JOINT FootLeft
        {
          OFFSET -4.344090 -1.403041 5.708033
          CHANNELS 3 Zrotation Xrotation Yrotation
          End Site
          {
            OFFSET 0 0 0
          }
        }
      }
    }
  }
  JOINT HipRight
  {
    OFFSET 4.604148 2.833664 -8.659699
    CHANNELS 3 Zrotation Xrotation Yrotation
    JOINT KneeRight
    {
      OFFSET 9.030060 -39.341929 -11.980674
      CHANNELS 3 Zrotation Xrotation Yrotation
      JOINT AnkleRight
      {
        OFFSET 9.779915 -34.543520 1.758224
        CHANNELS 3 Zrotation Xrotation Yrotation
        JOINT FootRight
        {
          OFFSET -3.656117 -7.445451 -2.610320
          CHANNELS 3 Zrotation Xrotation Yrotation
          End Site
          {
            OFFSET 0 0 0
          }
        }
      }
    }
  }
}
MOTION
Frames: 16
Frame Time: 0.033333
-33.916250 83.852221 329.974487 0.000000 0.000000 48.953616 -0.000000 0.000000 -48.953616 -0.000000 0.000000 0.000000 -0.000000 0.000000 0.000000 0.000000 0.000000 0.000000 -0.000000 0.000000 0.000000 -0.000000 0.000000 0.000000 -0.000000 0.000000 0.000000 -0.000000 0.000000 0.000000 0.000000 0.000000 0.000000 0.000000 0.000000 0.000000 -0.000000 0.000000 0.000000 -0.000000 0.000000 0.000000 -0.000000 0.000000 0.000000 -0.000000 0.000000 0.000000 0.000000 0.000000 0.000000 0.000000 0.000000 0.000000 -0.000000 0.000000 -48.953616 -0.000000 0.000000 0.000000 -0.000000 0.000000 0.000000 0.000000 0.000000 0.000000 -0.000000 0.000000 -48.953616 -0.000000 0.000000 0.000000 -0.000000 0.000000 0.000000 0.000000 0.000000 0.000000
-33.972702 83.862518 329.983947 -0.045914 -0.045746 48.831956 0.064661 -0.004450 -48.831972 -0.000000 0.000000 0.000000 -0.000000 0.000000 0.000000 0.000000 0.000000 0.000000 -0.000000 0.000000 0.000000 2.141613 -2.479038 0.000202 -8.095249 -0.153333 -3.180493 2.974437 0.047466 2.340857 0.000000 0.000000 0.000000 0.000000 0.000000 0.000000 -0.000000 0.000000 0.000000 -0.000000 0.000000 0.000000 -0.000000 0.000000 0.000000 -0.449271 2.109396 -0.723503 0.000000 0.000000 0.000000 0.000000 0.000000 0.000000 0.064661 -0.004450 -48.831972 -0.000000 0.000000 0.000000 0.251774 -0.090153 1.308285 0.000000 0.000000 0.000000 0.064661 -0.004450 -48.831972 -0.000000 0.000000 0.000000 -0.000000 0.000000 0.000000 0.000000 0.000000 0.000000
-34.021227 83.874677 329.987915 -0.084350 -0.083105 48.745967 0.118098 -0.008614 -48.746019 -0.000000 0.000000 0.000000 -0.000000 0.000000 0.000000 0.000000 0.000000 0.000000 -0.000000 0.000000 0.000000 3.825600 -4.411715 0.063338 -15.233980 -0.282349 -5.799673 5.266302 -0.333065 4.127271 0.000000 0.000000 0.000000 0.000000 0.000000 0.000000 -0.000000 0.000000 0.000000 -0.000000 0.000000 0.000000 -0.000000 0.000000 0.000000 -0.848440 3.918153 -1.316731 0.000000 0.000000 0.000000 0.000000 0.000000 0.000000 0.118098 -0.008614 -48.746019 0.428672 1.000799 0.345560 0.187220 -0.888118 1.878069 0.000000 0.000000 0.000000 0.118098 -0.008614 -48.746019 -0.000000 0.000000 0.000000 1.248342 -0.725775 -0.073930 0.000000 0.000000 0.000000
-34.061825 83.888698 329.986392 -0.115311 -0.112080 48.695725 0.160308 -0.012644 -48.695820 -0.000000 0.000000 0.000000 -0.000000 0.000000 0.000000 0.000000 0.000000 0.000000 -0.000000 0.000000 0.000000 5.127974 -5.886450 0.148556 -21.171892 -0.312266 -7.842990 6.762958 -1.121415 5.317121 0.000000 0.000000 0.000000 0.000000 0.000000 0.000000 -0.000000 0.000000 0.000000 -0.000000 0.000000 0.000000 0.658272 0.486329 -0.178408 -1.878924 4.924640 -1.619119 0.000000 0.000000 0.000000 0.000000 0.000000 0.000000 0.160308 -0.012644 -48.695820 0.602315 1.342476 0.457904 0.501842 -0.725441 2.282333 0.000000 0.000000 0.000000 0.160308 -0.012644 -48.695820 -0.000000 0.000000 0.000000 1.623416 -1.091787 -0.017767 0.000000 0.000000 0.000000
-34.094497 83.904580 329.979378 -0.138797 -0.132669 48.681215 0.191281 -0.016649 -48.681348 -0.000000 0.000000 0.000000 -0.000000 0.000000 0.000000 0.000000 0.000000 0.000000 -0.000000 0.000000 0.000000 6.104341 -6.971418 0.231310 -25.785308 -0.224446 -9.318457 7.513081 -2.128586 5.970230 0.000000 0.000000 0.000000 0.000000 0.000000 0.000000 -0.000000 0.000000 0.000000 -0.000000 0.000000 0.000000 0.818572 0.558982 -0.202295 -2.369206 6.032849 -1.942627 0.000000 0.000000 0.000000 0.000000 0.000000 0.000000 0.191281 -0.016649 -48.681348 0.749286 1.576640 0.530497 0.977349 -0.142080 2.312271 0.000000 0.000000 0.000000 0.191281 -0.016649 -48.681348 -0.000000 0.000000 0.000000 1.831079 -1.459199 0.099107 0.000000 0.000000 0.000000
-34.119243 83.922324 329.966873 -0.154806 -0.144872 48.702334 0.211008 -0.020694 -48.702492 -0.000000 0.000000 0.000000 -0.000000 0.000000 0.000000 0.000000 0.000000 0.000000 -0.000000 0.000000 0.000000 6.794444 -7.716533 0.297027 -29.045782 -0.026190 -10.255498 7.696061 -3.039316 6.221220 0.000000 0.000000 0.000000 0.000000 0.000000 0.000000 -0.000000 0.000000 0.000000 -0.000000 0.000000 0.000000 0.949737 0.587319 -0.207999 -2.800884 6.869290 -2.161109 0.000000 0.000000 0.000000 0.000000 0.000000 0.000000 0.211008 -0.020694 -48.702492 0.869756 1.702501 0.563713 1.633758 0.877615 1.939578 0.000000 0.000000 0.000000 0.211008 -0.020694 -48.702492 -0.000000 0.000000 0.000000 1.870362 -1.828204 0.275625 0.000000 0.000000 0.000000
-34.138538 83.972974 329.936233 -0.167578 -0.141471 48.740323 0.216860 -0.032677 -48.740468 -0.000000 0.000000 0.000000 -0.000000 0.000000 0.000000 0.000000 0.000000 0.000000 -0.000000 0.000000 0.000000 7.287287 -8.272960 0.355164 -31.176327 0.505483 -10.637422 9.243787 1.369785 7.308194 0.000000 0.000000 0.000000 0.000000 0.000000 0.000000 -0.000000 0.000000 0.000000 -0.000000 0.000000 0.000000 0.873305 0.586005 -0.211501 -2.979505 6.810635 -2.031226 0.000000 0.000000 0.000000 0.000000 0.000000 0.000000 0.216860 -0.032677 -48.740468 1.055847 1.843550 0.593729 0.686009 0.389158 -0.453622 0.000000 0.000000 0.000000 0.216860 -0.032677 -48.740468 -0.000000 0.000000 0.000000 1.372187 -2.027156 0.545308 0.000000 0.000000 0.000000
-34.144315 84.015894 329.903205 -0.166079 -0.126082 48.822101 0.204244 -0.041991 -48.822209 -0.000000 0.000000 0.000000 -0.000000 0.000000 0.000000 0.000000 0.000000 0.000000 -0.000000 0.000000 0.000000 7.386234 -8.381350 0.366731 -31.193715 1.087532 -10.314872 7.944096 1.765812 6.887508 0.000000 0.000000 0.000000 0.000000 0.000000 0.000000 -0.000000 0.000000 0.000000 -0.000000 0.000000 0.000000 0.955993 0.395344 -0.121176 -3.058110 6.890215 -2.065660 0.000000 0.000000 0.000000 0.000000 0.000000 0.000000 0.204244 -0.041991 -48.822209 1.104069 1.613410 0.498063 2.632781 3.596625 -2.209475 0.000000 0.000000 0.000000 0.204244 -0.041991 -48.822209 -0.000000 0.000000 0.000000 1.059686 -2.555763 0.918672 0.000000 0.000000 0.000000
-34.147033 84.024318 329.883375 -0.160141 -0.115576 48.949264 0.192328 -0.044866 -48.949350 -0.000000 0.000000 0.000000 -0.000000 0.000000 0.000000 0.000000 0.000000 0.000000 -0.000000 0.000000 0.000000 6.969701 -7.894419 0.312804 -28.932006 1.394281 -9.467539 6.467119 -0.385618 5.822305 0.000000 0.000000 0.000000 0.000000 0.000000 0.000000 -0.000000 0.000000 0.000000 -0.000000 0.000000 0.000000 1.159701 0.040226 0.050851 -3.040348 7.624831 -2.447765 0.000000 0.000000 0.000000 0.000000 0.000000 0.000000 0.192328 -0.044866 -48.949350 1.201440 1.617737 0.486906 3.014796 4.234408 -2.435657 0.000000 0.000000 0.000000 0.192328 -0.044866 -48.949350 -0.000000 0.000000 0.000000 1.069736 -3.256930 1.273600 0.000000 0.000000 0.000000
-34.147914 84.009945 329.889825 -0.152717 -0.135374 49.120614 0.202303 -0.026870 -49.120747 -0.000000 0.000000 0.000000 -0.000000 0.000000 0.000000 0.000000 0.000000 0.000000 -0.000000 0.000000 0.000000 6.984507 -7.599603 0.247430 -28.144271 1.993199 -8.820500 4.249896 -0.721035 4.784782 0.000000 0.000000 0.000000 0.000000 0.000000 0.000000 -0.000000 0.000000 0.000000 -0.000000 0.000000 0.000000 1.396837 -0.045151 0.103785 -4.121997 8.387521 -2.401012 0.000000 0.000000 0.000000 0.000000 0.000000 0.000000 0.202303 -0.026870 -49.120747 1.337076 1.809662 0.542991 2.402441 3.598591 -3.149255 0.000000 0.000000 0.000000 0.202303 -0.026870 -49.120747 -0.000000 0.000000 0.000000 1.028622 -3.680431 1.503807 0.000000 0.000000 0.000000
-34.127074 83.960459 329.861989 -0.124089 -0.122469 49.327705 0.173759 -0.014298 -49.327816 -0.000000 0.000000 0.000000 -0.000000 0.000000 0.000000 0.000000 0.000000 0.000000 -0.000000 0.000000 0.000000 6.950943 -7.508063 0.232110 -27.328523 2.904493 -8.094485 3.402298 1.418283 4.435871 0.000000 0.000000 0.000000 0.000000 0.000000 0.000000 -0.000000 0.000000 0.000000 -0.000000 0.000000 0.000000 2.506075 -0.852411 0.547573 -4.289829 8.221233 -2.764774 0.000000 0.000000 0.000000 0.000000 0.000000 0.000000 0.173759 -0.014298 -49.327816 1.291054 1.689217 0.502679 -1.834756 -1.290078 -3.898283 0.000000 0.000000 0.000000 0.173759 -0.014298 -49.327816 -0.000000 0.000000 0.000000 1.497780 -4.519218 1.790410 0.000000 0.000000 0.000000
-34.147312 83.912813 329.831741 -0.153240 -0.100806 49.493191 0.176181 -0.051035 -49.493247 -0.000000 0.000000 0.000000 -0.000000 0.000000 0.000000 0.000000 0.000000 0.000000 -0.000000 0.000000 0.000000 6.882201 -7.422432 0.222736 -27.805257 0.624174 -9.334231 -1.946110 -1.028591 3.170566 0.000000 0.000000 0.000000 0.000000 0.000000 0.000000 -0.000000 0.000000 0.000000 -0.000000 0.000000 0.000000 2.600896 -2.053977 1.115234 -5.130227 9.760934 -2.978983 0.000000 0.000000 0.000000 0.000000 0.000000 0.000000 0.176181 -0.051035 -49.493247 1.120901 1.380290 0.405490 -2.265969 -1.796575 -3.580395 0.000000 0.000000 0.000000 0.176181 -0.051035 -49.493247 -0.000000 0.000000 0.000000 1.849766 -4.825072 1.841792 0.000000 0.000000 0.000000
-34.168868 83.831923 329.754604 -0.180079 -0.025325 49.552057 0.136100 -0.120609 -49.551953 -0.000000 0.000000 0.000000 -0.000000 0.000000 0.000000 0.000000 0.000000 0.000000 -0.000000 0.000000 0.000000 6.761975 -7.353435 0.223805 -29.537296 0.474441 -10.208814 7.119597 10.464736 7.607768 0.000000 0.000000 0.000000 0.000000 0.000000 0.000000 -0.000000 0.000000 0.000000 -0.011857 -0.834182 0.106630 1.150427 0.515217 0.087543 -5.651497 9.934504 -2.193075 0.000000 0.000000 0.000000 0.000000 0.000000 0.000000 0.136100 -0.120609 -49.551953 0.958011 1.572440 0.501381 0.553805 0.592146 -1.183164 0.000000 0.000000 0.000000 0.136100 -0.120609 -49.551953 -0.000000 0.000000 0.000000 2.111957 -4.565529 1.624077 0.000000 0.000000 0.000000
-34.092919 83.797846 329.675538 -0.073045 0.035757 49.560280 0.020166 -0.078788 -49.560244 -0.000000 0.000000 0.000000 -0.000000 0.000000 0.000000 0.000000 0.000000 0.000000 -0.000000 0.000000 0.000000 6.859855 -7.013698 0.138312 -30.850514 -1.558991 -11.607984 10.729917 22.871141 10.387966 0.000000 0.000000 0.000000 0.000000 0.000000 0.000000 -0.000000 0.000000 0.000000 -0.143744 -0.891102 0.152771 1.247466 5.237735 -2.077857 -8.575870 7.941035 -0.571490 0.000000 0.000000 0.000000 0.000000 0.000000 0.000000 0.020166 -0.078788 -49.560244 0.784290 1.367983 0.444314 -0.795098 -1.361730 -0.463127 0.000000 0.000000 0.000000 0.020166 -0.078788 -49.560244 -0.000000 0.000000 0.000000 2.509124 -4.308950 1.364111 0.000000 0.000000 0.000000
-33.909154 83.814695 329.558996 0.180211 0.137625 49.437284 -0.221740 0.047411 -49.437409 -0.000000 0.000000 0.000000 -0.000000 0.000000 0.000000 0.000000 0.000000 0.000000 -0.000000 0.000000 0.000000 6.719433 -6.885407 0.130020 -31.823387 -1.729245 -12.219538 15.237053 33.384609 12.067323 0.000000 0.000000 0.000000 0.000000 0.000000 0.000000 0.379526 -0.960736 -0.357999 -1.580721 3.400863 0.464917 0.290262 11.542318 -6.222193 -8.885434 1.729060 1.963244 0.000000 0.000000 0.000000 0.000000 0.000000 0.000000 -0.221740 0.047411 -49.437409 0.694176 1.158759 0.373990 -2.067934 -2.989582 -0.244430 0.000000 0.000000 0.000000 -1.168649 -0.304443 -49.551417 0.346620 0.948840 0.109014 2.614299 -3.934921 1.132418 0.000000 0.000000 0.000000
-33.650127 83.667217 329.432147 0.482040 0.259432 48.964181 -0.512162 0.193280 -48.964409 -0.000000 0.000000 0.000000 0.664801 0.479243 0.200762 0.000000 0.000000 0.000000 -0.000000 0.000000 0.000000 6.393623 -6.876331 0.172383 -31.680715 -0.303329 -11.715253 18.667435 30.800626 11.692913 0.000000 0.000000 0.000000 0.000000 0.000000 0.000000 1.735318 -0.554762 -0.687808 -4.416304 8.724491 0.686331 -5.728602 22.685902 -12.691167 -2.545830 -9.905733 7.721805 0.000000 0.000000 0.000000 0.000000 0.000000 0.000000 -0.512162 0.193280 -48.964409 0.953347 1.269206 0.383946 0.825755 1.068518 -0.458392 0.000000 0.000000 0.000000 -1.880312 0.055826 -48.977115 0.794374 1.122395 0.007900 2.228706 -3.482983 1.017706 0.000000 0.000000 0.000000
